<?xml version="1.0" encoding="UTF-8"?>
<svg id="Layer_1" xmlns="http://www.w3.org/2000/svg" width="213.4" height="265.7" version="1.1" viewBox="0 0 213.4 265.7">
  <!-- Generator: Adobe Illustrator 29.7.1, SVG Export Plug-In . SVG Version: 2.1.1 Build 8)  -->
  <path id="logo-fill" d="M176.2,158.5c-1.6-8.4-2.1-16.8-2.1-25.7s.5-17.8,2.1-25.7c4.7,3.7,8.9,7.3,11.5,12l19.9-19.9c-5.8-7.3-14.1-14.1-23.6-19.9,2.1-4.7,4.2-8.9,6.8-12.6-7.9-4.7-16.2-8.4-25.7-11.5-2.1,4.2-4.7,8.4-6.8,12.6-13.6-4.2-29.3-6.8-45.6-6.8s-27.8,1.6-39.8,5.2l-10.5-12c-10,3.1-19.4,7.3-27.8,12h0c2.1,4.2,4.7,8.4,6.8,12.6-22,13.1-36.1,32.5-36.1,53.4s14.1,40.3,36.1,53.4c-2.1,4.7-4.2,8.9-6.8,12.6,7.9,4.7,16.2,8.4,25.7,11.5,2.1-4.2,4.7-8.4,6.8-12.6,13.6,4.2,29.3,6.8,45.6,6.8s27.8-1.6,39.8-5.2l10.5,12c10-3.1,19.4-7.3,27.8-12h0c-2.1-4.2-4.7-7.9-6.8-12.6,9.4-5.8,17.3-12,23.6-19.9l-19.9-19.9c-2.6,4.2-6.8,8.4-11.5,12h0ZM50,158.5c-10-7.3-15.7-16.2-15.7-25.7s5.8-18.9,15.7-25.7c1.6,8.4,2.1,16.8,2.1,25.7s-.5,17.8-2.1,25.7ZM112.8,175.8c-13.1,0-25.7-1.6-36.7-4.7,2.6-12,4.2-25.1,4.2-38.2s0-10.5-.5-15.7l50.8,57.6c-5.8.5-12,1-17.8,1h0ZM145.8,148l-50.8-57.6c5.8-.5,12-1,17.8-1,13.1,0,25.7,1.6,36.7,4.7-2.6,12-4.2,24.6-4.2,38.2s0,10.5.5,15.7h0Z"/>
  <path id="logo-stroke" d="M190.4,143.9c-.5-.5-1.6-1-2.6-1s0,0,0,0c-1,0-2.1.5-2.6,1.6-1.6,2.6-3.7,4.7-5.8,7.3-1-6.3-1-12.6-1-18.9s0-12.6,1-18.9c2.6,2.1,4.2,4.7,5.8,7.3.5,1,1.6,1.6,2.6,1.6h0c1,0,2.1,0,2.6-1l19.9-19.9c1.6-1.6,1.6-3.1,0-4.7-5.8-7.3-13.1-13.6-21.5-18.9,1.6-3.1,3.1-6.3,4.7-9.4.5-1,.5-1.6,0-2.6s-1-1.6-1.6-2.1c-8.4-4.7-17.3-8.9-26.7-12h-1c-1.6,0-2.6.5-3.1,1.6-2.1,3.1-3.7,6.8-5.2,10.5-13.6-4.2-28.3-5.8-43.5-5.8s-26.2,1.6-38.8,4.7l-8.9-10c-.5-.5-1.6-1-2.6-1h-1c-10,3.1-19.9,7.3-28.3,12.6-1,.5-1.6,1.6-1.6,2.6s0,2.1.5,2.6c1.6,2.6,3.1,5.8,4.7,8.9C14.9,91.5,1.8,111.4,1.8,132.3s12.6,40.9,35.1,55c-1.6,3.1-3.1,6.3-4.7,9.4-.5,1-.5,1.6,0,2.6,0,1,1,1.6,1.6,2.1,8.4,4.7,17.3,8.9,26.7,12h1c1.6,0,2.6-.5,3.1-1.6,2.1-3.1,3.7-6.8,5.2-10.5,13.6,4.2,28.3,5.8,43.5,5.8s26.2-1.6,38.8-4.7l8.9,10c.5.5,1.6,1,2.6,1h1c10-3.1,19.9-7.3,28.3-12.6,1-.5,1.6-1.6,1.6-2.6s0-2.1-.5-2.6c-1.6-2.6-3.1-5.8-4.7-8.9,8.9-5.8,16.2-12,21.5-18.9,1-1.6,1-3.7,0-4.7l-19.9-19.9h0l-.5.5ZM84.5,132.3v-5.2l39.3,44.5h-10.5c-11,0-22.5-1.6-32.5-4.2,2.6-11.5,3.7-23.6,3.7-35.6h0v.5ZM141.6,132.3v5.2l-39.3-44.5h10.5c11,0,22.5,1.6,32.5,4.2-2.6,11.5-3.7,23.6-3.7,35.6h0v-.5ZM37.4,132.3c0-7.9,4.7-14.1,9.4-18.9,1,6.3,1,12.6,1,18.9s0,12.6-1,18.9c-5.2-4.7-9.4-11-9.4-18.9Z"/>
</svg>