<svg xmlns="http://www.w3.org/2000/svg" width="1320" height="840" viewBox="0 0 1320 840" role="img" aria-labelledby="title desc">
  <title id="title">Breast cancer gene-expression modules and PAM50</title>
  <desc id="desc">A clearer diagram showing how coordinated gene-expression modules relate to PAM50 tendencies and pathology readouts.</desc>
  <defs>
    <linearGradient id="bg" x1="0" x2="1" y1="0" y2="1">
      <stop offset="0%" stop-color="#f5eee6"/>
      <stop offset="100%" stop-color="#e7eff5"/>
    </linearGradient>
    <style>
      .title { font: 700 34px Georgia, serif; fill: #1f2b33; }
      .head { font: 700 24px Georgia, serif; fill: #243642; }
      .body { font: 500 18px Georgia, serif; fill: #344955; }
      .box { rx: 22; ry: 22; stroke: #29404d; stroke-width: 3; }
      .arrow { stroke: #29404d; stroke-width: 4; fill: none; marker-end: url(#m); }
    </style>
    <marker id="m" markerWidth="12" markerHeight="12" refX="10" refY="6" orient="auto">
      <path d="M0,0 L12,6 L0,12 z" fill="#29404d"/>
    </marker>
  </defs>

  <rect width="1320" height="840" fill="url(#bg)"/>
  <text x="660" y="74" class="title" text-anchor="middle">
    <tspan x="660" dy="0">Breast cancer subtypes can be understood</tspan>
    <tspan x="660" dy="38">as combinations of modules</tspan>
  </text>

  <rect x="80" y="132" width="1160" height="136" class="box" fill="#fff9f2"/>
  <text x="110" y="190" class="head">Expression data from breast tumors</text>
  <text x="110" y="220" class="body">Coordinated programs are often more stable and more interpretable</text>
  <text x="110" y="246" class="body">than isolated single genes.</text>

  <rect x="95" y="304" width="220" height="128" class="box" fill="#f5e4d7"/>
  <text x="205" y="370" class="head" text-anchor="middle">Luminal</text>
  <text x="205" y="400" class="body" text-anchor="middle">ER-linked lineage</text>

  <rect x="365" y="304" width="240" height="128" class="box" fill="#edf0ce"/>
  <text x="485" y="370" class="head" text-anchor="middle">Proliferation</text>
  <text x="485" y="400" class="body" text-anchor="middle">cell cycle and growth</text>

  <rect x="655" y="304" width="220" height="128" class="box" fill="#dceaf6"/>
  <text x="765" y="370" class="head" text-anchor="middle">HER2</text>
  <text x="765" y="400" class="body" text-anchor="middle">ERBB2-related signal</text>

  <rect x="925" y="304" width="220" height="128" class="box" fill="#eee1f3"/>
  <text x="1035" y="370" class="head" text-anchor="middle">Basal</text>
  <text x="1035" y="396" class="body" text-anchor="middle">less differentiated</text>
  <text x="1035" y="418" class="body" text-anchor="middle">state</text>

  <rect x="150" y="544" width="450" height="180" class="box" fill="#fffdf7"/>
  <text x="375" y="604" class="head" text-anchor="middle">PAM50 tendencies</text>
  <text x="200" y="642" class="body">Luminal A: luminal high, proliferation lower</text>
  <text x="200" y="672" class="body">Luminal B: luminal plus higher proliferation</text>
  <text x="200" y="702" class="body">HER2-enriched: HER2-related program stronger</text>

  <rect x="690" y="544" width="470" height="180" class="box" fill="#eef5fa"/>
  <text x="925" y="604" class="head" text-anchor="middle">Pathology readouts</text>
  <text x="730" y="642" class="body">H&amp;E: grade, necrosis, immune context</text>
  <text x="730" y="672" class="body">IHC: ER / PR / HER2 / Ki-67 markers</text>
  <text x="730" y="702" class="body">Clinical meaning: subtype, risk, treatment</text>

  <path d="M660 268 L660 294" class="arrow"/>
  <path d="M205 432 L330 532" class="arrow"/>
  <path d="M485 432 L485 532" class="arrow"/>
  <path d="M765 432 L500 532" class="arrow"/>
  <path d="M1035 432 L910 532" class="arrow"/>
  <path d="M600 716 L670 716" class="arrow"/>

  <rect x="80" y="756" width="1160" height="60" class="box" fill="#ffffff"/>
  <text x="110" y="794" class="body">Modules are groups of genes that move together; PAM50 summarizes their characteristic combinations.</text>
</svg>
