<svg xmlns="http://www.w3.org/2000/svg" width="1320" height="820" viewBox="0 0 1320 820" role="img" aria-labelledby="title desc">
  <title id="title">GRPO family map</title>
  <desc id="desc">A clearer map of PPO, GRPO, and related critic-free variants such as Dr.GRPO, DAPO, BNPO, REINFORCE++, and RLOO.</desc>
  <defs>
    <linearGradient id="bg" x1="0" x2="1" y1="0" y2="1">
      <stop offset="0%" stop-color="#f4eee7"/>
      <stop offset="100%" stop-color="#e7eef6"/>
    </linearGradient>
    <style>
      .title { font: 700 40px Georgia, serif; fill: #1f2b33; }
      .head { font: 700 26px Georgia, serif; fill: #243642; }
      .body { font: 500 21px Georgia, serif; fill: #344955; }
      .box { rx: 22; ry: 22; stroke: #29404d; stroke-width: 3; }
      .arrow { stroke: #29404d; stroke-width: 4; fill: none; marker-end: url(#m); }
    </style>
    <marker id="m" markerWidth="12" markerHeight="12" refX="10" refY="6" orient="auto">
      <path d="M0,0 L12,6 L0,12 z" fill="#29404d"/>
    </marker>
  </defs>

  <rect width="1320" height="820" fill="url(#bg)"/>
  <text x="72" y="78" class="title">Most GRPO variants edit three design choices</text>

  <rect x="100" y="135" width="190" height="108" class="box" fill="#f6e5d7"/>
  <text x="195" y="204" class="head" text-anchor="middle">PPO</text>
  <text x="195" y="232" class="body" text-anchor="middle">critic-based baseline</text>

  <rect x="390" y="120" width="270" height="136" class="box" fill="#fdf8ef"/>
  <text x="525" y="190" class="head" text-anchor="middle">GRPO</text>
  <text x="525" y="216" class="body" text-anchor="middle">group-relative updates</text>
  <text x="525" y="248" class="body" text-anchor="middle">critic-free update</text>

  <rect x="790" y="135" width="250" height="108" class="box" fill="#e3eef8"/>
  <text x="915" y="204" class="head" text-anchor="middle">REINFORCE++</text>
  <text x="915" y="232" class="body" text-anchor="middle">global batch norm</text>

  <rect x="1080" y="135" width="160" height="108" class="box" fill="#e8f1e1"/>
  <text x="1160" y="204" class="head" text-anchor="middle">RLOO</text>
  <text x="1160" y="232" class="body" text-anchor="middle">LOO baseline</text>

  <rect x="200" y="360" width="220" height="132" class="box" fill="#efe1f4"/>
  <text x="310" y="430" class="head" text-anchor="middle">Dr.GRPO</text>
  <text x="310" y="456" class="body" text-anchor="middle">remove length bias</text>
  <text x="310" y="488" class="body" text-anchor="middle">and reward scaling</text>

  <rect x="500" y="344" width="280" height="160" class="box" fill="#dceaf6"/>
  <text x="640" y="416" class="head" text-anchor="middle">DAPO</text>
  <text x="640" y="444" class="body" text-anchor="middle">token-level loss</text>
  <text x="640" y="476" class="body" text-anchor="middle">dynamic sampling</text>
  <text x="640" y="508" class="body" text-anchor="middle">long-CoT training</text>

  <rect x="860" y="360" width="220" height="132" class="box" fill="#f3ead6"/>
  <text x="970" y="430" class="head" text-anchor="middle">BNPO</text>
  <text x="970" y="456" class="body" text-anchor="middle">adaptive reward</text>
  <text x="970" y="488" class="body" text-anchor="middle">normalization</text>

  <rect x="150" y="590" width="430" height="160" class="box" fill="#fffdf8"/>
  <text x="365" y="654" class="head" text-anchor="middle">Axis 1: normalization</text>
  <text x="365" y="694" class="body" text-anchor="middle">group std, global batch norm,</text>
  <text x="365" y="726" class="body" text-anchor="middle">or adaptive reward scaling</text>

  <rect x="660" y="590" width="500" height="160" class="box" fill="#eef5fa"/>
  <text x="910" y="646" class="head" text-anchor="middle">Axis 2 and 3</text>
  <text x="910" y="678" class="head" text-anchor="middle">loss and trust region</text>
  <text x="910" y="714" class="body" text-anchor="middle">per-sequence or per-token loss,</text>
  <text x="910" y="746" class="body" text-anchor="middle">plus clipping and sampling rules</text>

  <path d="M290 190 L380 190" class="arrow"/>
  <path d="M660 190 L780 190" class="arrow"/>
  <path d="M1040 190 L1072 190" class="arrow"/>
  <path d="M470 256 L320 348" class="arrow"/>
  <path d="M525 256 L640 334" class="arrow"/>
  <path d="M580 256 L950 350" class="arrow"/>
  <path d="M310 492 L310 588" class="arrow"/>
  <path d="M640 504 L860 588" class="arrow"/>
  <path d="M970 492 L950 588" class="arrow"/>
</svg>
