<svg xmlns="http://www.w3.org/2000/svg" width="1280" height="760" viewBox="0 0 1280 760" role="img" aria-labelledby="title desc">
  <title id="title">GRPO family map</title>
  <desc id="desc">A compact map of PPO, GRPO, and related critic-free variants such as Dr. GRPO, DAPO, BNPO, REINFORCE++, and RLOO.</desc>
  <defs>
    <linearGradient id="bg" x1="0" x2="1" y1="0" y2="1">
      <stop offset="0%" stop-color="#f4eee7"/>
      <stop offset="100%" stop-color="#e7eef6"/>
    </linearGradient>
    <style>
      .title { font: 700 34px Georgia, serif; fill: #1f2b33; }
      .head { font: 700 22px Georgia, serif; fill: #243642; }
      .body { font: 500 16px Georgia, serif; fill: #344955; }
      .box { rx: 22; ry: 22; stroke: #29404d; stroke-width: 3; }
      .arrow { stroke: #29404d; stroke-width: 4; fill: none; marker-end: url(#m); }
    </style>
    <marker id="m" markerWidth="12" markerHeight="12" refX="10" refY="6" orient="auto">
      <path d="M0,0 L12,6 L0,12 z" fill="#29404d"/>
    </marker>
  </defs>

  <rect width="1280" height="760" fill="url(#bg)"/>
  <text x="72" y="78" class="title">Most GRPO variants edit three design choices</text>

  <rect x="120" y="135" width="180" height="95" class="box" fill="#f6e5d7"/>
  <text x="210" y="188" class="head" text-anchor="middle">PPO</text>
  <text x="210" y="216" class="body" text-anchor="middle">critic-based baseline</text>

  <rect x="415" y="120" width="240" height="120" class="box" fill="#fdf8ef"/>
  <text x="535" y="170" class="head" text-anchor="middle">GRPO</text>
  <text x="535" y="198" class="body" text-anchor="middle">group-relative updates</text>
  <text x="535" y="224" class="body" text-anchor="middle">no critic</text>

  <rect x="790" y="135" width="230" height="95" class="box" fill="#e3eef8"/>
  <text x="905" y="188" class="head" text-anchor="middle">REINFORCE++</text>
  <text x="905" y="216" class="body" text-anchor="middle">global batch norm</text>

  <rect x="1045" y="135" width="150" height="95" class="box" fill="#e8f1e1"/>
  <text x="1120" y="188" class="head" text-anchor="middle">RLOO</text>
  <text x="1120" y="216" class="body" text-anchor="middle">LOO baseline</text>

  <rect x="250" y="360" width="190" height="105" class="box" fill="#efe1f4"/>
  <text x="345" y="414" class="head" text-anchor="middle">Dr.GRPO</text>
  <text x="345" y="442" class="body" text-anchor="middle">remove length bias</text>
  <text x="345" y="464" class="body" text-anchor="middle">and reward scaling</text>

  <rect x="520" y="345" width="240" height="135" class="box" fill="#dceaf6"/>
  <text x="640" y="396" class="head" text-anchor="middle">DAPO</text>
  <text x="640" y="424" class="body" text-anchor="middle">token-level loss</text>
  <text x="640" y="446" class="body" text-anchor="middle">dynamic sampling</text>
  <text x="640" y="468" class="body" text-anchor="middle">long-CoT training</text>

  <rect x="850" y="360" width="200" height="105" class="box" fill="#f3ead6"/>
  <text x="950" y="414" class="head" text-anchor="middle">BNPO</text>
  <text x="950" y="442" class="body" text-anchor="middle">adaptive reward</text>
  <text x="950" y="464" class="body" text-anchor="middle">normalization</text>

  <rect x="170" y="560" width="400" height="135" class="box" fill="#fffdf8"/>
  <text x="370" y="612" class="head" text-anchor="middle">Axis 1: normalization</text>
  <text x="370" y="640" class="body" text-anchor="middle">group std, global batch norm,</text>
  <text x="370" y="662" class="body" text-anchor="middle">or adaptive reward scaling</text>

  <rect x="620" y="560" width="470" height="135" class="box" fill="#eef5fa"/>
  <text x="855" y="612" class="head" text-anchor="middle">Axis 2 and 3: loss and trust region</text>
  <text x="855" y="640" class="body" text-anchor="middle">per-sequence or per-token loss,</text>
  <text x="855" y="662" class="body" text-anchor="middle">plus clipping and sampling rules</text>

  <path d="M300 182 L405 182" class="arrow"/>
  <path d="M655 182 L780 182" class="arrow"/>
  <path d="M1020 182 L1040 182" class="arrow"/>
  <path d="M520 240 L360 350" class="arrow"/>
  <path d="M535 240 L635 335" class="arrow"/>
  <path d="M560 240 L930 350" class="arrow"/>
  <path d="M345 465 L345 560" class="arrow"/>
  <path d="M650 480 L845 560" class="arrow"/>
  <path d="M950 465 L920 560" class="arrow"/>
</svg>
