<svg xmlns="http://www.w3.org/2000/svg" width="1280" height="780" viewBox="0 0 1280 780" role="img" aria-labelledby="title desc">
  <title id="title">Lifecycle of a skill-guided MCP task</title>
  <desc id="desc">A clearer flow diagram showing task detection, skill loading, MCP discovery, execution, verification, retry, and final output.</desc>
  <defs>
    <linearGradient id="bg2" x1="0" x2="1" y1="0" y2="1">
      <stop offset="0%" stop-color="#eef5ea"/>
      <stop offset="100%" stop-color="#f5ebe3"/>
    </linearGradient>
    <style>
      .h { font: 700 34px Georgia, serif; fill: #1e2b24; }
      .t { font: 600 24px Georgia, serif; fill: #22332a; }
      .s { font: 500 20px Georgia, serif; fill: #36473d; }
      .box { rx: 20; ry: 20; stroke: #304036; stroke-width: 3; }
      .arrow { stroke: #304036; stroke-width: 5; fill: none; marker-end: url(#am); }
    </style>
    <marker id="am" markerWidth="12" markerHeight="12" refX="10" refY="6" orient="auto">
      <path d="M0,0 L12,6 L0,12 z" fill="#304036"/>
    </marker>
  </defs>

  <rect width="1280" height="780" fill="url(#bg2)"/>
  <text x="70" y="82" class="h">A practical execution loop for Skills and MCP</text>

  <rect x="70" y="150" width="220" height="122" class="box" fill="#fffdf7"/>
  <text x="102" y="212" class="t">1. Detect task</text>
  <text x="102" y="250" class="s">classify request type</text>

  <rect x="340" y="150" width="250" height="122" class="box" fill="#eff4ff"/>
  <text x="374" y="212" class="t">2. Load Skill</text>
  <text x="374" y="250" class="s">instructions, scripts, rules</text>

  <rect x="650" y="150" width="270" height="122" class="box" fill="#f9efe7"/>
  <text x="686" y="212" class="t">3. Discover MCP</text>
  <text x="686" y="250" class="s">tools, resources, prompts</text>

  <rect x="980" y="150" width="220" height="122" class="box" fill="#fff9dc"/>
  <text x="1016" y="212" class="t">4. Execute</text>
  <text x="1016" y="250" class="s">typed calls to systems</text>

  <rect x="180" y="430" width="300" height="132" class="box" fill="#fffdf7"/>
  <text x="220" y="494" class="t">5. Verify result</text>
  <text x="220" y="532" class="s">check logs, files, tests, output</text>

  <rect x="520" y="414" width="300" height="164" class="box" fill="#eef7ef"/>
  <text x="560" y="480" class="t">6. Ask or retry</text>
  <text x="560" y="518" class="s">missing data, auth, approvals</text>
  <text x="560" y="550" class="s">or failure path</text>

  <rect x="870" y="430" width="300" height="132" class="box" fill="#e9f1fb"/>
  <text x="910" y="494" class="t">7. Final output</text>
  <text x="910" y="532" class="s">artifact, summary, next step</text>

  <path d="M290 210 L330 210" class="arrow"/>
  <path d="M590 210 L640 210" class="arrow"/>
  <path d="M920 210 L970 210" class="arrow"/>
  <path d="M1090 272 L1090 390" class="arrow"/>
  <path d="M870 496 L830 496" class="arrow"/>
  <path d="M520 496 L490 496" class="arrow"/>
  <path d="M330 430 L330 290" class="arrow"/>
  <path d="M685 414 L685 290" class="arrow"/>

  <rect x="70" y="646" width="1130" height="82" class="box" fill="#fffdf7"/>
  <text x="104" y="698" class="s">Design principle: let MCP handle capability exposure, and let the Skill define the preferred execution policy.</text>
</svg>
